<?xml version="1.0" encoding="UTF-8" standalone="no"?>
<!DOCTYPE svg PUBLIC "-//W3C//DTD SVG 1.1//EN"
 "http://www.w3.org/Graphics/SVG/1.1/DTD/svg11.dtd">
<!-- Generated by graphviz version 5.0.0 (20220707.1540)
 -->
<!-- Title: dependencies Pages: 1 -->
<svg width="1239pt" height="247pt"
 viewBox="0.00 0.00 1239.00 246.80" xmlns="http://www.w3.org/2000/svg" xmlns:xlink="http://www.w3.org/1999/xlink">
<g id="graph0" class="graph" transform="scale(1 1) rotate(0) translate(4 242.8)">
<title>dependencies</title>
<polygon fill="white" stroke="transparent" points="-4,4 -4,-242.8 1235,-242.8 1235,4 -4,4"/>
<text text-anchor="middle" x="615.5" y="-8.2" font-family="sans-serif" font-size="14.00">dependencies</text>
<g id="clust1" class="cluster">
<title>cluster_AppModule</title>
<polygon fill="none" stroke="black" stroke-dasharray="1,5" points="8,-32.8 8,-230.8 1223,-230.8 1223,-32.8 8,-32.8"/>
</g>
<g id="clust10" class="cluster">
<title>cluster_AppModule_imports</title>
<polygon fill="none" stroke="black" points="1071,-40.8 1071,-92.8 1215,-92.8 1215,-40.8 1071,-40.8"/>
</g>
<g id="clust12" class="cluster">
<title>cluster_AppModule_bootstrap</title>
<polygon fill="none" stroke="black" points="572,-170.8 572,-222.8 696,-222.8 696,-170.8 572,-170.8"/>
</g>
<g id="clust2" class="cluster">
<title>cluster_AppModule_declarations</title>
<polygon fill="none" stroke="black" points="16,-40.8 16,-92.8 1063,-92.8 1063,-40.8 16,-40.8"/>
</g>
<!-- AnalyticsComponent -->
<g id="node1" class="node">
<title>AnalyticsComponent</title>
<polygon fill="#ffffb3" stroke="black" points="1055.49,-84.8 920.51,-84.8 920.51,-48.8 1055.49,-48.8 1055.49,-84.8"/>
<text text-anchor="middle" x="988" y="-62.6" font-family="Times,serif" font-size="14.00">AnalyticsComponent</text>
</g>
<!-- AppModule -->
<g id="node8" class="node">
<title>AppModule</title>
<polygon fill="#8dd3c7" stroke="black" points="675.66,-149.8 672.66,-153.8 651.66,-153.8 648.66,-149.8 592.34,-149.8 592.34,-113.8 675.66,-113.8 675.66,-149.8"/>
<text text-anchor="middle" x="634" y="-127.6" font-family="Times,serif" font-size="14.00">AppModule</text>
</g>
<!-- AnalyticsComponent&#45;&gt;AppModule -->
<g id="edge1" class="edge">
<title>AnalyticsComponent&#45;&gt;AppModule</title>
<path fill="none" stroke="black" d="M988,-84.91C988,-104.14 988,-131.8 988,-131.8 988,-131.8 686,-131.8 686,-131.8"/>
<polygon fill="black" stroke="black" points="686,-128.3 676,-131.8 686,-135.3 686,-128.3"/>
</g>
<!-- AppComponent -->
<g id="node2" class="node">
<title>AppComponent</title>
<polygon fill="#ffffb3" stroke="black" points="902.94,-84.8 797.06,-84.8 797.06,-48.8 902.94,-48.8 902.94,-84.8"/>
<text text-anchor="middle" x="850" y="-62.6" font-family="Times,serif" font-size="14.00">AppComponent</text>
</g>
<!-- AppComponent&#45;&gt;AppModule -->
<g id="edge2" class="edge">
<title>AppComponent&#45;&gt;AppModule</title>
<path fill="none" stroke="black" d="M850,-84.83C850,-101.2 850,-122.8 850,-122.8 850,-122.8 685.9,-122.8 685.9,-122.8"/>
<polygon fill="black" stroke="black" points="685.9,-119.3 675.9,-122.8 685.9,-126.3 685.9,-119.3"/>
</g>
<!-- PromptComponent -->
<g id="node3" class="node">
<title>PromptComponent</title>
<polygon fill="#ffffb3" stroke="black" points="779.06,-84.8 656.94,-84.8 656.94,-48.8 779.06,-48.8 779.06,-84.8"/>
<text text-anchor="middle" x="718" y="-62.6" font-family="Times,serif" font-size="14.00">PromptComponent</text>
</g>
<!-- PromptComponent&#45;&gt;AppModule -->
<g id="edge3" class="edge">
<title>PromptComponent&#45;&gt;AppModule</title>
<path fill="none" stroke="black" d="M666.28,-84.91C666.28,-84.91 666.28,-103.79 666.28,-103.79"/>
<polygon fill="black" stroke="black" points="662.78,-103.79 666.28,-113.79 669.78,-103.79 662.78,-103.79"/>
</g>
<!-- StartStopSessionComponent -->
<g id="node4" class="node">
<title>StartStopSessionComponent</title>
<polygon fill="#ffffb3" stroke="black" points="639.23,-84.8 462.77,-84.8 462.77,-48.8 639.23,-48.8 639.23,-84.8"/>
<text text-anchor="middle" x="551" y="-62.6" font-family="Times,serif" font-size="14.00">StartStopSessionComponent</text>
</g>
<!-- StartStopSessionComponent&#45;&gt;AppModule -->
<g id="edge4" class="edge">
<title>StartStopSessionComponent&#45;&gt;AppModule</title>
<path fill="none" stroke="black" d="M615.64,-84.91C615.64,-84.91 615.64,-103.79 615.64,-103.79"/>
<polygon fill="black" stroke="black" points="612.14,-103.79 615.64,-113.79 619.14,-103.79 612.14,-103.79"/>
</g>
<!-- TodoComponent -->
<g id="node5" class="node">
<title>TodoComponent</title>
<polygon fill="#ffffb3" stroke="black" points="444.38,-84.8 333.62,-84.8 333.62,-48.8 444.38,-48.8 444.38,-84.8"/>
<text text-anchor="middle" x="389" y="-62.6" font-family="Times,serif" font-size="14.00">TodoComponent</text>
</g>
<!-- TodoComponent&#45;&gt;AppModule -->
<g id="edge5" class="edge">
<title>TodoComponent&#45;&gt;AppModule</title>
<path fill="none" stroke="black" d="M389,-84.83C389,-101.2 389,-122.8 389,-122.8 389,-122.8 582.16,-122.8 582.16,-122.8"/>
<polygon fill="black" stroke="black" points="582.16,-126.3 592.16,-122.8 582.16,-119.3 582.16,-126.3"/>
</g>
<!-- TodoFormComponent -->
<g id="node6" class="node">
<title>TodoFormComponent</title>
<polygon fill="#ffffb3" stroke="black" points="315.72,-84.8 174.28,-84.8 174.28,-48.8 315.72,-48.8 315.72,-84.8"/>
<text text-anchor="middle" x="245" y="-62.6" font-family="Times,serif" font-size="14.00">TodoFormComponent</text>
</g>
<!-- TodoFormComponent&#45;&gt;AppModule -->
<g id="edge6" class="edge">
<title>TodoFormComponent&#45;&gt;AppModule</title>
<path fill="none" stroke="black" d="M245,-84.91C245,-104.14 245,-131.8 245,-131.8 245,-131.8 582,-131.8 582,-131.8"/>
<polygon fill="black" stroke="black" points="582,-135.3 592,-131.8 582,-128.3 582,-135.3"/>
</g>
<!-- TodoListComponent -->
<g id="node7" class="node">
<title>TodoListComponent</title>
<polygon fill="#ffffb3" stroke="black" points="156.16,-84.8 23.84,-84.8 23.84,-48.8 156.16,-48.8 156.16,-84.8"/>
<text text-anchor="middle" x="90" y="-62.6" font-family="Times,serif" font-size="14.00">TodoListComponent</text>
</g>
<!-- TodoListComponent&#45;&gt;AppModule -->
<g id="edge7" class="edge">
<title>TodoListComponent&#45;&gt;AppModule</title>
<path fill="none" stroke="black" d="M90,-85.09C90,-107.01 90,-140.8 90,-140.8 90,-140.8 582.22,-140.8 582.22,-140.8"/>
<polygon fill="black" stroke="black" points="582.22,-144.3 592.22,-140.8 582.22,-137.3 582.22,-144.3"/>
</g>
<!-- AppComponent  -->
<g id="node10" class="node">
<title>AppComponent </title>
<polygon fill="#80b1d3" stroke="black" points="688.44,-214.8 579.56,-214.8 579.56,-178.8 688.44,-178.8 688.44,-214.8"/>
<text text-anchor="middle" x="634" y="-192.6" font-family="Times,serif" font-size="14.00">AppComponent </text>
</g>
<!-- AppModule&#45;&gt;AppComponent  -->
<g id="edge9" class="edge">
<title>AppModule&#45;&gt;AppComponent </title>
<path fill="none" stroke="black" stroke-dasharray="1,5" d="M634,-149.91C634,-149.91 634,-168.79 634,-168.79"/>
<polygon fill="black" stroke="black" points="630.5,-168.79 634,-178.79 637.5,-168.79 630.5,-168.79"/>
</g>
<!-- AppRoutingModule -->
<g id="node9" class="node">
<title>AppRoutingModule</title>
<polygon fill="#8dd3c7" stroke="black" points="1207.28,-84.8 1204.28,-88.8 1183.28,-88.8 1180.28,-84.8 1078.72,-84.8 1078.72,-48.8 1207.28,-48.8 1207.28,-84.8"/>
<text text-anchor="middle" x="1143" y="-62.6" font-family="Times,serif" font-size="14.00">AppRoutingModule</text>
</g>
<!-- AppRoutingModule&#45;&gt;AppModule -->
<g id="edge8" class="edge">
<title>AppRoutingModule&#45;&gt;AppModule</title>
<path fill="none" stroke="black" d="M1143,-85.09C1143,-107.01 1143,-140.8 1143,-140.8 1143,-140.8 686.09,-140.8 686.09,-140.8"/>
<polygon fill="black" stroke="black" points="686.09,-137.3 676.09,-140.8 686.09,-144.3 686.09,-137.3"/>
</g>
</g>
</svg>
